<svg xmlns="http://www.w3.org/2000/svg" width="1024" height="1024" viewBox="0 0 1024 1024">
<g>
<path d="M 0.00 0.00 L 1024.00 0.00 L 1024.00 1024.00 L 0.00 1024.00 ZM 518.35 657.94 C520.76,659.14 522.05,659.79 523.33,659.79 C524.82,659.80 526.31,658.94 529.56,657.08 L 529.74 656.97 C534.95,653.99 556.17,633.90 625.85,566.00 C644.20,548.13 668.05,525.15 678.85,514.94 C716.54,479.34 735.20,456.63 747.41,431.50 C764.46,396.41 770.57,364.05 766.97,327.86 C762.13,279.15 741.22,234.36 706.35,197.99 C668.45,158.44 618.27,132.90 561.00,124.00 C539.01,120.58 497.43,121.46 472.00,125.87 C453.57,129.07 427.82,137.52 410.50,146.06 C354.38,173.72 315.79,214.30 291.68,271.00 C277.71,303.88 273.61,325.51 273.61,366.50 C273.61,394.48 274.03,397.19 279.30,402.83 C280.10,403.69 280.71,404.42 281.42,405.03 C285.27,408.34 292.00,408.32 347.41,408.12 C349.98,408.11 352.65,408.10 355.43,408.09 C360.18,408.07 364.63,408.06 368.78,408.05 C418.23,407.90 426.96,407.88 431.16,403.50 C432.41,402.19 433.26,400.50 434.67,398.30 L 438.26 392.68 L 437.59 382.95 C436.77,371.06 438.42,352.93 441.17,343.54 C447.92,320.49 462.45,302.63 482.50,292.74 C499.88,284.17 516.58,281.27 532.44,284.07 C552.11,287.55 567.10,295.20 579.63,308.16 C590.58,319.50 595.79,331.20 596.68,346.50 C598.26,373.62 586.25,395.37 554.58,422.75 C541.45,434.10 506.93,466.33 482.52,490.03 C473.16,499.12 458.25,513.16 449.40,521.24 C431.61,537.46 428.72,540.74 427.11,546.55 C424.21,556.99 426.26,562.52 437.30,573.98 C441.81,578.67 449.06,586.55 453.41,591.50 C471.99,612.65 514.30,655.94 518.35,657.94 ZM 592.00 537.78 C566.97,561.78 541.77,586.17 535.99,591.96 L 525.49 602.50 L 505.85 582.00 C495.05,570.72 484.73,559.77 482.91,557.65 C479.77,553.98 479.71,553.75 481.56,552.74 C482.63,552.16 489.82,545.57 497.55,538.09 C513.11,523.03 542.95,495.04 572.90,467.41 C608.74,434.32 622.00,419.23 630.99,401.26 C649.00,365.23 646.41,322.32 624.36,291.37 C605.96,265.54 580.50,249.42 546.00,241.75 C531.47,238.52 508.41,238.80 493.50,242.40 C481.07,245.40 474.99,247.60 463.51,253.30 C438.63,265.64 418.98,285.55 407.03,310.50 C401.16,322.74 395.22,344.58 393.49,360.30 L 392.84 366.10 L 355.41 365.94 C334.82,365.85 317.80,365.48 317.57,365.12 C316.92,364.06 318.83,336.64 320.08,329.23 C322.56,314.41 331.52,286.89 338.17,273.66 C352.05,246.06 378.55,217.05 405.84,199.59 C416.72,192.63 429.38,185.82 439.24,181.61 C455.11,174.85 480.41,168.43 495.40,167.38 C500.72,167.01 505.30,166.32 505.59,165.85 C506.45,164.46 536.73,164.88 548.57,166.44 C570.22,169.30 586.82,173.60 604.61,180.98 C631.03,191.93 662.88,214.30 679.57,233.63 C699.20,256.36 713.92,285.50 719.66,313.00 C723.04,329.19 723.79,349.84 721.56,365.00 C719.45,379.26 713.67,397.31 706.54,411.84 C692.59,440.26 685.26,448.31 592.00,537.78 ZM 347.00 871.96 C350.02,872.39 359.06,872.80 367.08,872.87 C396.62,873.13 419.94,866.12 445.50,849.28 C456.54,842.00 459.92,839.11 482.00,818.10 C491.62,808.94 500.62,800.64 502.00,799.65 L 504.50 797.85 L 487.79 781.63 L 471.08 765.41 L 452.21 783.96 C430.49,805.31 418.04,815.23 405.81,820.97 C374.14,835.81 340.54,831.69 312.76,809.56 C300.38,799.70 289.28,780.68 286.52,764.62 C281.63,736.11 289.42,712.32 310.14,692.44 C327.14,676.12 341.96,669.85 363.97,669.65 C380.79,669.50 388.12,670.90 401.50,676.79 C414.15,682.36 432.14,695.51 449.00,711.51 C453.67,715.94 462.23,723.80 468.00,728.98 C488.44,747.28 519.78,776.82 545.48,802.00 C576.42,832.31 587.12,842.00 597.09,848.73 C620.54,864.55 648.23,873.00 676.62,873.00 C711.32,873.00 740.67,861.45 765.27,838.11 C785.91,818.52 797.27,797.16 802.14,768.79 C808.95,729.01 795.59,688.71 766.43,661.11 C749.20,644.79 727.43,633.37 704.00,628.33 C690.89,625.51 663.03,625.79 649.00,628.88 C619.94,635.28 596.00,649.59 566.00,678.50 C559.12,685.12 550.14,693.57 546.04,697.27 C539.65,703.03 538.79,704.19 540.04,705.31 C540.84,706.03 548.27,712.98 556.55,720.76 L 571.61 734.90 L 579.05 727.87 C583.15,724.01 592.35,715.58 599.50,709.15 C636.70,675.69 648.76,669.65 678.50,669.61 C693.69,669.59 700.59,671.04 713.50,676.98 C726.68,683.05 741.39,696.22 748.34,708.18 C752.11,714.65 756.51,726.50 758.50,735.50 C761.62,749.68 759.00,770.09 752.35,783.34 C740.52,806.91 716.51,824.37 689.45,829.08 C680.57,830.63 664.46,829.66 654.27,826.97 C635.99,822.14 617.47,810.06 594.51,788.00 C586.21,780.03 575.16,769.70 569.96,765.07 C564.76,760.43 541.38,738.31 518.00,715.91 C494.62,693.52 469.95,670.44 463.17,664.64 C432.77,638.61 400.91,626.00 365.50,626.01 C337.21,626.01 319.11,631.38 296.38,646.51 C282.13,656.00 270.80,666.68 263.24,677.75 C248.64,699.11 242.25,718.16 241.26,743.26 C240.15,771.46 246.80,796.46 261.02,817.52 C267.10,826.54 279.89,840.24 288.20,846.64 C304.51,859.22 327.82,869.25 347.00,871.96 Z" fill="rgb(11,15,23)"/>
<path d="M 347.00 871.96 C327.82,869.25 304.51,859.22 288.20,846.64 C279.89,840.24 267.10,826.54 261.02,817.52 C246.80,796.46 240.15,771.46 241.26,743.26 C242.25,718.16 248.64,699.11 263.24,677.75 C270.80,666.68 282.13,656.00 296.38,646.51 C319.11,631.38 337.21,626.01 365.50,626.01 C400.91,626.00 432.77,638.61 463.17,664.64 C469.95,670.44 494.62,693.52 518.00,715.91 C541.38,738.31 564.76,760.43 569.96,765.07 C575.16,769.70 586.21,780.03 594.51,788.00 C617.47,810.06 635.99,822.14 654.27,826.97 C664.46,829.66 680.57,830.63 689.45,829.08 C716.51,824.37 740.52,806.91 752.35,783.34 C759.00,770.09 761.62,749.68 758.50,735.50 C756.51,726.50 752.11,714.65 748.34,708.18 C741.39,696.22 726.68,683.05 713.50,676.98 C700.59,671.04 693.69,669.59 678.50,669.61 C648.76,669.65 636.70,675.69 599.50,709.15 C592.35,715.58 583.15,724.01 579.05,727.87 L 571.61 734.90 L 556.55 720.76 C548.27,712.98 540.84,706.03 540.04,705.31 C538.79,704.19 539.65,703.03 546.04,697.27 C550.14,693.57 559.12,685.12 566.00,678.50 C596.00,649.59 619.94,635.28 649.00,628.88 C663.03,625.79 690.89,625.51 704.00,628.33 C727.43,633.37 749.20,644.79 766.43,661.11 C795.59,688.71 808.95,729.01 802.14,768.79 C797.27,797.16 785.91,818.52 765.27,838.11 C740.67,861.45 711.32,873.00 676.62,873.00 C648.23,873.00 620.54,864.55 597.09,848.73 C587.12,842.00 576.42,832.31 545.48,802.00 C519.78,776.82 488.44,747.28 468.00,728.98 C462.23,723.80 453.67,715.94 449.00,711.51 C432.14,695.51 414.15,682.36 401.50,676.79 C388.12,670.90 380.79,669.50 363.97,669.65 C341.96,669.85 327.14,676.12 310.14,692.44 C289.42,712.32 281.63,736.11 286.52,764.62 C289.28,780.68 300.38,799.70 312.76,809.56 C340.54,831.69 374.14,835.81 405.81,820.97 C418.04,815.23 430.49,805.31 452.21,783.96 L 471.08 765.41 L 487.79 781.63 L 504.50 797.85 L 502.00 799.65 C500.62,800.64 491.62,808.94 482.00,818.10 C459.92,839.11 456.54,842.00 445.50,849.28 C419.94,866.12 396.62,873.13 367.08,872.87 C359.06,872.80 350.02,872.39 347.00,871.96 ZM 518.35 657.94 C514.30,655.94 471.99,612.65 453.41,591.50 C449.06,586.55 441.81,578.67 437.30,573.98 C426.26,562.52 424.21,556.99 427.11,546.55 C428.72,540.74 431.61,537.46 449.40,521.24 C458.25,513.16 473.16,499.12 482.52,490.03 C506.93,466.33 541.45,434.10 554.58,422.75 C586.25,395.37 598.26,373.62 596.68,346.50 C595.79,331.20 590.58,319.50 579.63,308.16 C567.10,295.20 552.11,287.55 532.44,284.07 C516.58,281.27 499.88,284.17 482.50,292.74 C462.45,302.63 447.92,320.49 441.17,343.54 C438.42,352.93 436.77,371.06 437.59,382.95 L 438.26 392.68 L 434.67 398.30 C428.15,408.49 433.61,407.82 355.43,408.09 C281.55,408.35 284.65,408.56 279.30,402.83 C274.03,397.19 273.61,394.48 273.61,366.50 C273.61,325.51 277.71,303.88 291.68,271.00 C315.79,214.30 354.38,173.72 410.50,146.06 C427.82,137.52 453.57,129.07 472.00,125.87 C497.43,121.46 539.01,120.58 561.00,124.00 C618.27,132.90 668.45,158.44 706.35,197.99 C741.22,234.36 762.13,279.15 766.97,327.86 C770.57,364.05 764.46,396.41 747.41,431.50 C735.20,456.63 716.54,479.34 678.85,514.94 C668.05,525.15 644.20,548.13 625.85,566.00 C556.17,633.90 534.95,653.99 529.74,656.97 C523.50,660.56 523.61,660.55 518.35,657.94 ZM 592.00 537.78 C685.26,448.31 692.59,440.26 706.54,411.84 C713.67,397.31 719.45,379.26 721.56,365.00 C723.79,349.84 723.04,329.19 719.66,313.00 C713.92,285.50 699.20,256.36 679.57,233.63 C662.88,214.30 631.03,191.93 604.61,180.98 C586.82,173.60 570.22,169.30 548.57,166.44 C536.73,164.88 506.45,164.46 505.59,165.85 C505.30,166.32 500.72,167.01 495.40,167.38 C480.41,168.43 455.11,174.85 439.24,181.61 C429.38,185.82 416.72,192.63 405.84,199.59 C378.55,217.05 352.05,246.06 338.17,273.66 C331.52,286.89 322.56,314.41 320.08,329.23 C318.83,336.64 316.92,364.06 317.57,365.12 C317.80,365.48 334.82,365.85 355.41,365.94 L 392.84 366.10 L 393.49 360.30 C395.22,344.58 401.16,322.74 407.03,310.50 C418.98,285.55 438.63,265.64 463.51,253.30 C474.99,247.60 481.07,245.40 493.50,242.40 C508.41,238.80 531.47,238.52 546.00,241.75 C580.50,249.42 605.96,265.54 624.36,291.37 C646.41,322.32 649.00,365.23 630.99,401.26 C622.00,419.23 608.74,434.32 572.90,467.41 C542.95,495.04 513.11,523.03 497.55,538.09 C489.82,545.57 482.63,552.16 481.56,552.74 C479.71,553.75 479.77,553.98 482.91,557.65 C484.73,559.77 495.05,570.72 505.85,582.00 L 525.49 602.50 L 535.99 591.96 C541.77,586.17 566.97,561.78 592.00,537.78 Z" fill="rgb(252,252,252)"/>
</g>
</svg>